inDegrees=no
num_controls=7
num_derivatives=13
num_iterations=118
num_multipliers=7
num_parameters=0
num_slacks=7
num_states=26
objective=0.545470
objective_accelerations=0.041621
objective_balance=0.003769
objective_effort=0.040532
objective_height=0.450105
objective_ligament=0.009443
solver_duration=1285.726610
status=Solve_Succeeded
success=true
DataType=double
version=3
OpenSimVersion=4.5
endheader
time	/jointset/ground_pelvis/pelvis_tilt/value	/jointset/ground_pelvis/pelvis_tx/value	/jointset/ground_pelvis/pelvis_ty/value	/jointset/hip_r/hip_flexion_r/value	/jointset/hip_r/hip_adduction_r/value	/jointset/hip_r/hip_rotation_r/value	/jointset/back/lumbar_extension/value	/jointset/patellofemoral_r/patellar_flexion_r/value	/jointset/knee_r/knee_flexion_r/value	/jointset/knee_r/knee_adduction_r/value	/jointset/knee_r/knee_rotation_r/value	/jointset/ankle_r/ankle_angle_r/value	/jointset/subtalar_r/subtalar_angle_r/value	/jointset/ground_pelvis/pelvis_tilt/speed	/jointset/ground_pelvis/pelvis_tx/speed	/jointset/ground_pelvis/pelvis_ty/speed	/jointset/hip_r/hip_flexion_r/speed	/jointset/hip_r/hip_adduction_r/speed	/jointset/hip_r/hip_rotation_r/speed	/jointset/back/lumbar_extension/speed	/jointset/patellofemoral_r/patellar_flexion_r/speed	/jointset/knee_r/knee_flexion_r/speed	/jointset/knee_r/knee_adduction_r/speed	/jointset/knee_r/knee_rotation_r/speed	/jointset/ankle_r/ankle_angle_r/speed	/jointset/subtalar_r/subtalar_angle_r/speed	/forceset/tau_hip_flexion_r	/forceset/tau_hip_adduction_r	/forceset/tau_hip_rotation_r	/forceset/tau_knee_flexion_r	/forceset/tau_ankle_angle_r	/forceset/tau_subtalar_angle_r	/forceset/tau_lumbar_extension	lambda_cid13_p0	lambda_cid14_p0	lambda_cid14_p1	lambda_cid14_p2	lambda_cid14_p3	lambda_cid14_p4	lambda_cid14_p5	/jointset/ground_pelvis/pelvis_tilt/accel	/jointset/ground_pelvis/pelvis_tx/accel	/jointset/ground_pelvis/pelvis_ty/accel	/jointset/hip_r/hip_flexion_r/accel	/jointset/hip_r/hip_adduction_r/accel	/jointset/hip_r/hip_rotation_r/accel	/jointset/back/lumbar_extension/accel	/jointset/patellofemoral_r/patellar_flexion_r/accel	/jointset/knee_r/knee_flexion_r/accel	/jointset/knee_r/knee_adduction_r/accel	/jointset/knee_r/knee_rotation_r/accel	/jointset/ankle_r/ankle_angle_r/accel	/jointset/subtalar_r/subtalar_angle_r/accel	gamma_cid13_p0	gamma_cid14_p0	gamma_cid14_p1	gamma_cid14_p2	gamma_cid14_p3	gamma_cid14_p4	gamma_cid14_p5
0.5	-0.2166901325156637	-0.001567424116434307	0.8408467803249665	0.8980740730133449	-0.2279873951120052	-0.1319973456761785	-0.3376534629464489	0.6963929279705519	0.6963929279705491	0.03626254318335634	0.1744974490798274	0.1834106332945203	0.03693386674142699	-0.583118055315858	-0.2052524368348148	-0.4035316021596151	1.94064460113877	-0.002309547238069772	0.2680801524511352	-0.5892475440030848	1.671225757869133	1.671225757869133	-0.275815132327267	-0.0002870064438049919	0.3942311819372006	0.09835076494378277	-0.1516888940490418	-0.0220771420148573	0.009337511932118387	-0.3124816450495028	0.1128993506249716	-0.009132801544671989	0.1867268914126013	-31.53531254502986	-5.980762553227736	-0.8616083796221731	-4.145199690437619	-1.714003958706611	-667.961827827708	59.69501542762763	0.2974444543092694	0.515732825223872	-0.3391254646769751	-1.294767710807053	-0.02545585706081675	-0.5060070718224475	1.690729368529966	-1.228217279506563	-1.228217279506559	0.4548760967766264	0.008990687674015032	-0.3621125899994113	-0.08007618203471978	-1.093497889131039e-07	-1.36817234634499e-07	5.460654609991784e-07	-8.984369674201009e-07	2.746558404427703e-08	-2.186510368092879e-07	4.090699090572326e-07
0.51	-0.2225052899027938	-0.003593969918998866	0.8367954348940911	0.9174126260497243	-0.2280125352944856	-0.1293413140337501	-0.3434611428598733	0.7130412678879924	0.7130412678879917	0.03352920752237407	0.1744953462180872	0.1873339290500817	0.03791215448447204	-0.5798296575014632	-0.200040642696361	-0.406647130887142	1.926806048231667	-0.002727389821972993	0.2631575650994268	-0.5722282473974464	1.658209749311356	1.658209749311356	-0.2707937610222755	-0.000153303651249883	0.3903625752777021	0.09727543100332998	-0.1593322650826747	-0.02053604135874997	0.009987744758057263	-0.314713594761421	0.1100993551550142	-0.008674902311733805	0.1931778661562441	-30.5746967572236	-7.088759226678738	-0.9570322770761686	-4.015434052149561	-1.223975934985446	-672.1149265764564	59.47560442500889	0.357090580558118	0.5263177031963124	-0.2842542489048289	-1.467408381373835	-0.05134161662067453	-0.4808307696113685	1.716558499231541	-1.373143632190943	-1.373143632190954	0.5345582172308485	0.01244922917134517	-0.4090569151843652	-0.1259646602759348	-8.515310332354189e-08	-5.708710797596688e-08	7.522699873797657e-07	-3.406778491054457e-07	-4.815086111457728e-08	-1.418531938134855e-07	3.902001067392736e-07
0.52	-0.2282850526846693	-0.005567914781170876	0.8327156366415175	0.9366049916968902	-0.228042132534318	-0.1267335975053919	-0.3490968240687112	0.7295524775221998	0.7295524775222006	0.03084784368841582	0.1744939582150976	0.1912165742967963	0.03887874835606748	-0.5760391342649275	-0.1947322487563048	-0.4092221664992281	1.911407123296087	-0.003200958708502143	0.2584171296370646	-0.5548478030857856	1.64379970122247	1.64379970122247	-0.2654207669224667	-0.0001440346936909238	0.3861010801678316	0.09601199065386211	-0.1669756361162906	-0.01899494070264262	0.01063797758399615	-0.3169455444733393	0.1072993596850568	-0.008217003078795611	0.1996288408998869	-29.60775111927525	-8.200301549904571	-1.050423349902418	-3.889023979701461	-0.7450529606991256	-676.3304158081024	59.31087654103352	0.3978695387374435	0.5350527855443367	-0.2310268415888086	-1.606842116502619	-0.036601117586196	-0.4695766939532386	1.762958909734427	-1.507025185728365	-1.507025185728364	0.5252006557400576	-0.01589607932517535	-0.4406902800738285	-0.1176974638377391	-5.053093426097194e-08	6.924657443668998e-08	1.108511204165617e-06	5.300419669657403e-07	-1.742036342295532e-07	-1.789382006229803e-08	3.933132534155165e-07
0.53	-0.2340246286103837	-0.007488305622386403	0.8286128007833321	0.9556359853252059	-0.2280761313138035	-0.1241750390324001	-0.3545568552897825	0.7459128572168007	0.7459128572168023	0.02821916106325679	0.1744935756606856	0.1950549726053435	0.03983264571930204	-0.5717976634144873	-0.1893291006992641	-0.4112507880977123	1.894533659192866	-0.00361598323152064	0.2533551340715181	-0.5371131697953779	1.62805200019945	1.62805200019945	-0.2602285136306893	3.358394208577436e-05	0.3815222655569816	0.0947274649488466	-0.1742267234012863	-0.01775220611204157	0.01123362479140146	-0.3197783663844114	0.1053975246331252	-0.007845949635536729	0.2057750013744238	-28.63508256407713	-9.029484142501083	-1.135478284837918	-3.760075833126448	-0.485358626106591	-680.6086533957093	59.20996621514961	0.449053808358012	0.5454205512800571	-0.1746378197226113	-1.766276850894149	-0.04626346699616114	-0.5154177610387554	1.785506238659925	-1.642271716219888	-1.642271716219926	0.5295652195997343	0.02968128656860473	-0.4749619543046829	-0.1395125579741697	-2.667640995542732e-08	1.522837696999567e-07	1.332326070828652e-06	1.09731755313797e-06	-2.564713709193272e-07	6.301197952013563e-08	4.068647918064936e-07
